  0
SECTION
  2
HEADER
  9
$ACADVER
  1
AC1009
  9
$INSBASE
 10
0.0
 20
0.0
 30
0.0
  9
$EXTMIN
 10
0.0
 20
0.0
 30
0.0
  9
$EXTMAX
 10
0.0
 20
0.0
 30
0.0
  0
ENDSEC
  0
SECTION
  2
TABLES
  0
TABLE
  2
VPORT
 70
0
  0
ENDTAB
  0
TABLE
  2
LTYPE
 70
1
  0
LTYPE
  2
CONTINUOUS
 70
0
  3
Solid line
 72
65
 73
0
 40
0.0
  0
ENDTAB
  0
TABLE
  2
LAYER
 70
1
  0
LAYER
  2
PYDXF
 70
64
 62
7
  6
continuous
  0
ENDTAB
  0
TABLE
  2
STYLE
 70
1
  0
STYLE
  2
STANDARD
 70
0
 40
0
 41
1.0
 50
0.0
 71
0
 42
1
 3
ARIAL.TTF
 4

  0
ENDTAB
  0
TABLE
  2
VIEW
 70
0
  0
ENDTAB
  0
ENDSEC
  0
SECTION
  2
BLOCKS
  0
BLOCK
  8
0
  2
CUT002007
 70
0
 10
0.0
 20
0.0
 30
0.0
  3
CUT002007
  0
POLYLINE
  8
0
 62
250
 70
0
 66
1
 10
0.0
 20
0.0
 30
0.0
  0
VERTEX
  8
0
 10
110.0
 20
75.0
  0
VERTEX
  8
0
 10
90.0
 20
75.0
  0
VERTEX
  8
0
 10
110.0
 20
75.0
  0
VERTEX
  8
0
 10
110.0
 20
75.0
  0
VERTEX
  8
0
 10
110.0
 20
75.0
  0
SEQEND
  8
0
  0
POLYLINE
  8
0
 62
250
 70
0
 66
1
 10
0.0
 20
0.0
 30
0.0
  0
VERTEX
  8
0
 10
42.5
 20
141.5
  0
VERTEX
  8
0
 10
42.5
 20
141.5
  0
SEQEND
  8
0
  0
POLYLINE
  8
0
 62
250
 70
0
 66
1
 10
0.0
 20
0.0
 30
0.0
  0
VERTEX
  8
0
 10
42.5
 20
121.5
  0
VERTEX
  8
0
 10
42.5
 20
121.5
  0
SEQEND
  8
0
  0
POLYLINE
  8
0
 62
250
 70
0
 66
1
 10
0.0
 20
0.0
 30
0.0
  0
VERTEX
  8
0
 10
51.5
 20
141.5
  0
VERTEX
  8
0
 10
51.5
 20
141.5
  0
SEQEND
  8
0
  0
POLYLINE
  8
0
 62
250
 70
0
 66
1
 10
0.0
 20
0.0
 30
0.0
  0
VERTEX
  8
0
 10
51.5
 20
121.5
  0
VERTEX
  8
0
 10
51.5
 20
121.5
  0
SEQEND
  8
0
  0
POLYLINE
  8
0
 62
250
 70
0
 66
1
 10
0.0
 20
0.0
 30
0.0
  0
VERTEX
  8
0
 10
56.5
 20
141.5
  0
VERTEX
  8
0
 10
56.5
 20
141.5
  0
SEQEND
  8
0
  0
POLYLINE
  8
0
 62
250
 70
0
 66
1
 10
0.0
 20
0.0
 30
0.0
  0
VERTEX
  8
0
 10
56.5
 20
121.5
  0
VERTEX
  8
0
 10
56.5
 20
121.5
  0
SEQEND
  8
0
  0
POLYLINE
  8
0
 62
250
 70
0
 66
1
 10
0.0
 20
0.0
 30
0.0
  0
VERTEX
  8
0
 10
61.5
 20
141.5
  0
VERTEX
  8
0
 10
61.5
 20
141.5
  0
SEQEND
  8
0
  0
POLYLINE
  8
0
 62
250
 70
0
 66
1
 10
0.0
 20
0.0
 30
0.0
  0
VERTEX
  8
0
 10
61.5
 20
121.5
  0
VERTEX
  8
0
 10
61.5
 20
121.5
  0
SEQEND
  8
0
  0
POLYLINE
  8
0
 62
250
 70
0
 66
1
 10
0.0
 20
0.0
 30
0.0
  0
VERTEX
  8
0
 10
70.5
 20
141.5
  0
VERTEX
  8
0
 10
70.5
 20
141.5
  0
SEQEND
  8
0
  0
POLYLINE
  8
0
 62
250
 70
0
 66
1
 10
0.0
 20
0.0
 30
0.0
  0
VERTEX
  8
0
 10
70.5
 20
121.5
  0
VERTEX
  8
0
 10
70.5
 20
121.5
  0
SEQEND
  8
0
  0
POLYLINE
  8
0
 62
250
 70
0
 66
1
 10
0.0
 20
0.0
 30
0.0
  0
VERTEX
  8
0
 10
22.5
 20
63.0
  0
VERTEX
  8
0
 10
22.5
 20
63.0
  0
SEQEND
  8
0
  0
POLYLINE
  8
0
 62
250
 70
0
 66
1
 10
0.0
 20
0.0
 30
0.0
  0
VERTEX
  8
0
 10
87.5
 20
63.0
  0
VERTEX
  8
0
 10
87.5
 20
63.0
  0
SEQEND
  8
0
  0
POLYLINE
  8
0
 62
250
 70
0
 66
1
 10
0.0
 20
0.0
 30
0.0
  0
VERTEX
  8
0
 10
83.5
 20
113.0
  0
VERTEX
  8
0
 10
83.5
 20
113.0
  0
SEQEND
  8
0
  0
POLYLINE
  8
0
 62
250
 70
0
 66
1
 10
0.0
 20
0.0
 30
0.0
  0
VERTEX
  8
0
 10
27.5
 20
112.0
  0
VERTEX
  8
0
 10
27.5
 20
112.0
  0
SEQEND
  8
0
  0
POLYLINE
  8
0
 62
250
 70
0
 66
1
 10
0.0
 20
0.0
 30
0.0
  0
VERTEX
  8
0
 10
0.0
 20
60.0
  0
VERTEX
  8
0
 10
20.0
 20
75.0
  0
VERTEX
  8
0
 10
20.0
 20
120.0
  0
VERTEX
  8
0
 10
20.0
 20
120.0
  0
VERTEX
  8
0
 10
0.0
 20
120.0
  0
VERTEX
  8
0
 10
110.0
 20
145.0
  0
VERTEX
  8
0
 10
110.0
 20
120.0
  0
VERTEX
  8
0
 10
110.0
 20
120.0
  0
VERTEX
  8
0
 10
90.0
 20
120.0
  0
VERTEX
  8
0
 10
110.0
 20
75.0
  0
VERTEX
  8
0
 10
110.0
 20
60.0
  0
VERTEX
  8
0
 10
110.0
 20
60.0
  0
VERTEX
  8
0
 10
11.0
 20
5.55111512313e-16
  0
VERTEX
  8
0
 10
0.0
 20
60.0
  0
VERTEX
  8
0
 10
11.0
 20
5.55111512313e-16
  0
SEQEND
  8
0
  0
POLYLINE
  8
0
 62
250
 70
0
 66
1
 10
0.0
 20
0.0
 30
0.0
  0
VERTEX
  8
0
 10
110.0
 20
60.0
  0
VERTEX
  8
0
 10
110.0
 20
75.0
  0
VERTEX
  8
0
 10
110.0
 20
60.0
  0
VERTEX
  8
0
 10
110.0
 20
60.0
  0
VERTEX
  8
0
 10
110.0
 20
60.0
  0
SEQEND
  8
0
  0
POLYLINE
  8
0
 62
250
 70
0
 66
1
 10
0.0
 20
0.0
 30
0.0
  0
VERTEX
  8
0
 10
90.0
 20
75.0
  0
VERTEX
  8
0
 10
90.0
 20
120.0
  0
VERTEX
  8
0
 10
90.0
 20
120.0
  0
VERTEX
  8
0
 10
90.0
 20
120.0
  0
VERTEX
  8
0
 10
90.0
 20
75.0
  0
SEQEND
  8
0
  0
POLYLINE
  8
0
 62
250
 70
0
 66
1
 10
0.0
 20
0.0
 30
0.0
  0
VERTEX
  8
0
 10
42.5
 20
141.5
  0
VERTEX
  8
0
 10
42.5
 20
141.5
  0
SEQEND
  8
0
  0
POLYLINE
  8
0
 62
250
 70
0
 66
1
 10
0.0
 20
0.0
 30
0.0
  0
VERTEX
  8
0
 10
42.5
 20
121.5
  0
VERTEX
  8
0
 10
42.5
 20
121.5
  0
SEQEND
  8
0
  0
POLYLINE
  8
0
 62
250
 70
0
 66
1
 10
0.0
 20
0.0
 30
0.0
  0
VERTEX
  8
0
 10
51.5
 20
141.5
  0
VERTEX
  8
0
 10
51.5
 20
141.5
  0
SEQEND
  8
0
  0
POLYLINE
  8
0
 62
250
 70
0
 66
1
 10
0.0
 20
0.0
 30
0.0
  0
VERTEX
  8
0
 10
51.5
 20
121.5
  0
VERTEX
  8
0
 10
51.5
 20
121.5
  0
SEQEND
  8
0
  0
POLYLINE
  8
0
 62
250
 70
0
 66
1
 10
0.0
 20
0.0
 30
0.0
  0
VERTEX
  8
0
 10
56.5
 20
141.5
  0
VERTEX
  8
0
 10
56.5
 20
141.5
  0
SEQEND
  8
0
  0
POLYLINE
  8
0
 62
250
 70
0
 66
1
 10
0.0
 20
0.0
 30
0.0
  0
VERTEX
  8
0
 10
56.5
 20
121.5
  0
VERTEX
  8
0
 10
56.5
 20
121.5
  0
SEQEND
  8
0
  0
POLYLINE
  8
0
 62
250
 70
0
 66
1
 10
0.0
 20
0.0
 30
0.0
  0
VERTEX
  8
0
 10
61.5
 20
141.5
  0
VERTEX
  8
0
 10
61.5
 20
141.5
  0
SEQEND
  8
0
  0
POLYLINE
  8
0
 62
250
 70
0
 66
1
 10
0.0
 20
0.0
 30
0.0
  0
VERTEX
  8
0
 10
61.5
 20
121.5
  0
VERTEX
  8
0
 10
61.5
 20
121.5
  0
SEQEND
  8
0
  0
POLYLINE
  8
0
 62
250
 70
0
 66
1
 10
0.0
 20
0.0
 30
0.0
  0
VERTEX
  8
0
 10
70.5
 20
141.5
  0
VERTEX
  8
0
 10
70.5
 20
141.5
  0
SEQEND
  8
0
  0
POLYLINE
  8
0
 62
250
 70
0
 66
1
 10
0.0
 20
0.0
 30
0.0
  0
VERTEX
  8
0
 10
70.5
 20
121.5
  0
VERTEX
  8
0
 10
70.5
 20
121.5
  0
SEQEND
  8
0
  0
POLYLINE
  8
0
 62
250
 70
0
 66
1
 10
0.0
 20
0.0
 30
0.0
  0
VERTEX
  8
0
 10
22.5
 20
63.0
  0
VERTEX
  8
0
 10
22.5
 20
63.0
  0
SEQEND
  8
0
  0
POLYLINE
  8
0
 62
250
 70
0
 66
1
 10
0.0
 20
0.0
 30
0.0
  0
VERTEX
  8
0
 10
87.5
 20
63.0
  0
VERTEX
  8
0
 10
87.5
 20
63.0
  0
SEQEND
  8
0
  0
POLYLINE
  8
0
 62
250
 70
0
 66
1
 10
0.0
 20
0.0
 30
0.0
  0
VERTEX
  8
0
 10
83.5
 20
113.0
  0
VERTEX
  8
0
 10
83.5
 20
113.0
  0
SEQEND
  8
0
  0
POLYLINE
  8
0
 62
250
 70
0
 66
1
 10
0.0
 20
0.0
 30
0.0
  0
VERTEX
  8
0
 10
27.5
 20
112.0
  0
VERTEX
  8
0
 10
27.5
 20
112.0
  0
SEQEND
  8
0
  0
POLYLINE
  8
0
 62
250
 70
0
 66
1
 10
0.0
 20
0.0
 30
0.0
  0
VERTEX
  8
0
 10
0.0
 20
60.0
  0
VERTEX
  8
0
 10
20.0
 20
75.0
  0
VERTEX
  8
0
 10
20.0
 20
120.0
  0
VERTEX
  8
0
 10
20.0
 20
120.0
  0
VERTEX
  8
0
 10
0.0
 20
120.0
  0
VERTEX
  8
0
 10
110.0
 20
145.0
  0
VERTEX
  8
0
 10
110.0
 20
120.0
  0
VERTEX
  8
0
 10
110.0
 20
120.0
  0
VERTEX
  8
0
 10
90.0
 20
120.0
  0
VERTEX
  8
0
 10
110.0
 20
75.0
  0
VERTEX
  8
0
 10
110.0
 20
60.0
  0
VERTEX
  8
0
 10
110.0
 20
60.0
  0
VERTEX
  8
0
 10
11.0
 20
5.55111512313e-16
  0
VERTEX
  8
0
 10
0.0
 20
60.0
  0
VERTEX
  8
0
 10
11.0
 20
5.55111512313e-16
  0
SEQEND
  8
0
  0
POLYLINE
  8
0
 62
250
 70
0
 66
1
 10
0.0
 20
0.0
 30
0.0
  0
VERTEX
  8
0
 10
42.5
 20
141.5
  0
VERTEX
  8
0
 10
42.5
 20
141.5
  0
VERTEX
  8
0
 10
42.5
 20
141.5
  0
VERTEX
  8
0
 10
42.5
 20
141.5
  0
SEQEND
  8
0
  0
POLYLINE
  8
0
 62
250
 70
0
 66
1
 10
0.0
 20
0.0
 30
0.0
  0
VERTEX
  8
0
 10
42.5
 20
121.5
  0
VERTEX
  8
0
 10
42.5
 20
121.5
  0
VERTEX
  8
0
 10
42.5
 20
121.5
  0
VERTEX
  8
0
 10
42.5
 20
121.5
  0
SEQEND
  8
0
  0
POLYLINE
  8
0
 62
250
 70
0
 66
1
 10
0.0
 20
0.0
 30
0.0
  0
VERTEX
  8
0
 10
51.5
 20
141.5
  0
VERTEX
  8
0
 10
51.5
 20
141.5
  0
VERTEX
  8
0
 10
51.5
 20
141.5
  0
VERTEX
  8
0
 10
51.5
 20
141.5
  0
SEQEND
  8
0
  0
POLYLINE
  8
0
 62
250
 70
0
 66
1
 10
0.0
 20
0.0
 30
0.0
  0
VERTEX
  8
0
 10
51.5
 20
121.5
  0
VERTEX
  8
0
 10
51.5
 20
121.5
  0
VERTEX
  8
0
 10
51.5
 20
121.5
  0
VERTEX
  8
0
 10
51.5
 20
121.5
  0
SEQEND
  8
0
  0
POLYLINE
  8
0
 62
250
 70
0
 66
1
 10
0.0
 20
0.0
 30
0.0
  0
VERTEX
  8
0
 10
56.5
 20
141.5
  0
VERTEX
  8
0
 10
56.5
 20
141.5
  0
VERTEX
  8
0
 10
56.5
 20
141.5
  0
VERTEX
  8
0
 10
56.5
 20
141.5
  0
SEQEND
  8
0
  0
POLYLINE
  8
0
 62
250
 70
0
 66
1
 10
0.0
 20
0.0
 30
0.0
  0
VERTEX
  8
0
 10
56.5
 20
121.5
  0
VERTEX
  8
0
 10
56.5
 20
121.5
  0
VERTEX
  8
0
 10
56.5
 20
121.5
  0
VERTEX
  8
0
 10
56.5
 20
121.5
  0
SEQEND
  8
0
  0
POLYLINE
  8
0
 62
250
 70
0
 66
1
 10
0.0
 20
0.0
 30
0.0
  0
VERTEX
  8
0
 10
61.5
 20
141.5
  0
VERTEX
  8
0
 10
61.5
 20
141.5
  0
VERTEX
  8
0
 10
61.5
 20
141.5
  0
VERTEX
  8
0
 10
61.5
 20
141.5
  0
SEQEND
  8
0
  0
POLYLINE
  8
0
 62
250
 70
0
 66
1
 10
0.0
 20
0.0
 30
0.0
  0
VERTEX
  8
0
 10
61.5
 20
121.5
  0
VERTEX
  8
0
 10
61.5
 20
121.5
  0
VERTEX
  8
0
 10
61.5
 20
121.5
  0
VERTEX
  8
0
 10
61.5
 20
121.5
  0
SEQEND
  8
0
  0
POLYLINE
  8
0
 62
250
 70
0
 66
1
 10
0.0
 20
0.0
 30
0.0
  0
VERTEX
  8
0
 10
70.5
 20
141.5
  0
VERTEX
  8
0
 10
70.5
 20
141.5
  0
VERTEX
  8
0
 10
70.5
 20
141.5
  0
VERTEX
  8
0
 10
70.5
 20
141.5
  0
SEQEND
  8
0
  0
POLYLINE
  8
0
 62
250
 70
0
 66
1
 10
0.0
 20
0.0
 30
0.0
  0
VERTEX
  8
0
 10
70.5
 20
121.5
  0
VERTEX
  8
0
 10
70.5
 20
121.5
  0
VERTEX
  8
0
 10
70.5
 20
121.5
  0
VERTEX
  8
0
 10
70.5
 20
121.5
  0
SEQEND
  8
0
  0
POLYLINE
  8
0
 62
250
 70
0
 66
1
 10
0.0
 20
0.0
 30
0.0
  0
VERTEX
  8
0
 10
22.5
 20
63.0
  0
VERTEX
  8
0
 10
22.5
 20
63.0
  0
VERTEX
  8
0
 10
22.5
 20
63.0
  0
VERTEX
  8
0
 10
22.5
 20
63.0
  0
SEQEND
  8
0
  0
POLYLINE
  8
0
 62
250
 70
0
 66
1
 10
0.0
 20
0.0
 30
0.0
  0
VERTEX
  8
0
 10
87.5
 20
63.0
  0
VERTEX
  8
0
 10
87.5
 20
63.0
  0
VERTEX
  8
0
 10
87.5
 20
63.0
  0
VERTEX
  8
0
 10
87.5
 20
63.0
  0
SEQEND
  8
0
  0
POLYLINE
  8
0
 62
250
 70
0
 66
1
 10
0.0
 20
0.0
 30
0.0
  0
VERTEX
  8
0
 10
83.5
 20
113.0
  0
VERTEX
  8
0
 10
83.5
 20
113.0
  0
VERTEX
  8
0
 10
83.5
 20
113.0
  0
VERTEX
  8
0
 10
83.5
 20
113.0
  0
SEQEND
  8
0
  0
POLYLINE
  8
0
 62
250
 70
0
 66
1
 10
0.0
 20
0.0
 30
0.0
  0
VERTEX
  8
0
 10
27.5
 20
112.0
  0
VERTEX
  8
0
 10
27.5
 20
112.0
  0
VERTEX
  8
0
 10
27.5
 20
112.0
  0
VERTEX
  8
0
 10
27.5
 20
112.0
  0
SEQEND
  8
0
  0
POLYLINE
  8
0
 62
250
 70
0
 66
1
 10
0.0
 20
0.0
 30
0.0
  0
VERTEX
  8
0
 10
0.0
 20
60.0
  0
VERTEX
  8
0
 10
0.0
 20
75.0
  0
VERTEX
  8
0
 10
0.0
 20
60.0
  0
VERTEX
  8
0
 10
0.0
 20
60.0
  0
VERTEX
  8
0
 10
0.0
 20
60.0
  0
SEQEND
  8
0
  0
POLYLINE
  8
0
 62
250
 70
0
 66
1
 10
0.0
 20
0.0
 30
0.0
  0
VERTEX
  8
0
 10
0.0
 20
60.0
  0
VERTEX
  8
0
 10
0.0
 20
60.0
  0
VERTEX
  8
0
 10
11.0
 20
5.55111512313e-16
  0
VERTEX
  8
0
 10
0.0
 20
60.0
  0
VERTEX
  8
0
 10
11.0
 20
5.55111512313e-16
  0
SEQEND
  8
0
  0
POLYLINE
  8
0
 62
250
 70
0
 66
1
 10
0.0
 20
0.0
 30
0.0
  0
VERTEX
  8
0
 10
20.0
 20
75.0
  0
VERTEX
  8
0
 10
0.0
 20
75.0
  0
VERTEX
  8
0
 10
20.0
 20
75.0
  0
VERTEX
  8
0
 10
20.0
 20
75.0
  0
VERTEX
  8
0
 10
20.0
 20
75.0
  0
SEQEND
  8
0
  0
POLYLINE
  8
0
 62
250
 70
0
 66
1
 10
0.0
 20
0.0
 30
0.0
  0
VERTEX
  8
0
 10
11.0
 20
5.55111512313e-16
  0
VERTEX
  8
0
 10
99.0
 20
5.55111512313e-16
  0
VERTEX
  8
0
 10
11.0
 20
5.55111512313e-16
  0
VERTEX
  8
0
 10
11.0
 20
5.55111512313e-16
  0
VERTEX
  8
0
 10
11.0
 20
5.55111512313e-16
  0
SEQEND
  8
0
  0
POLYLINE
  8
0
 62
250
 70
0
 66
1
 10
0.0
 20
0.0
 30
0.0
  0
VERTEX
  8
0
 10
20.0
 20
75.0
  0
VERTEX
  8
0
 10
20.0
 20
120.0
  0
VERTEX
  8
0
 10
20.0
 20
120.0
  0
VERTEX
  8
0
 10
20.0
 20
120.0
  0
VERTEX
  8
0
 10
20.0
 20
75.0
  0
SEQEND
  8
0
  0
POLYLINE
  8
0
 62
250
 70
0
 66
1
 10
0.0
 20
0.0
 30
0.0
  0
VERTEX
  8
0
 10
110.0
 20
60.0
  0
VERTEX
  8
0
 10
110.0
 20
60.0
  0
VERTEX
  8
0
 10
99.0
 20
5.55111512313e-16
  0
VERTEX
  8
0
 10
110.0
 20
60.0
  0
VERTEX
  8
0
 10
99.0
 20
5.55111512313e-16
  0
SEQEND
  8
0
  0
POLYLINE
  8
0
 62
250
 70
0
 66
1
 10
0.0
 20
0.0
 30
0.0
  0
VERTEX
  8
0
 10
20.0
 20
120.0
  0
VERTEX
  8
0
 10
0.0
 20
120.0
  0
VERTEX
  8
0
 10
20.0
 20
120.0
  0
VERTEX
  8
0
 10
20.0
 20
120.0
  0
VERTEX
  8
0
 10
20.0
 20
120.0
  0
SEQEND
  8
0
  0
POLYLINE
  8
0
 62
250
 70
0
 66
1
 10
0.0
 20
0.0
 30
0.0
  0
VERTEX
  8
0
 10
0.0
 20
120.0
  0
VERTEX
  8
0
 10
0.0
 20
145.0
  0
VERTEX
  8
0
 10
0.0
 20
120.0
  0
VERTEX
  8
0
 10
0.0
 20
120.0
  0
VERTEX
  8
0
 10
0.0
 20
120.0
  0
SEQEND
  8
0
  0
POLYLINE
  8
0
 62
250
 70
0
 66
1
 10
0.0
 20
0.0
 30
0.0
  0
VERTEX
  8
0
 10
110.0
 20
145.0
  0
VERTEX
  8
0
 10
0.0
 20
145.0
  0
VERTEX
  8
0
 10
110.0
 20
145.0
  0
VERTEX
  8
0
 10
110.0
 20
145.0
  0
VERTEX
  8
0
 10
110.0
 20
145.0
  0
SEQEND
  8
0
  0
POLYLINE
  8
0
 62
250
 70
0
 66
1
 10
0.0
 20
0.0
 30
0.0
  0
VERTEX
  8
0
 10
110.0
 20
120.0
  0
VERTEX
  8
0
 10
110.0
 20
145.0
  0
VERTEX
  8
0
 10
110.0
 20
120.0
  0
VERTEX
  8
0
 10
110.0
 20
120.0
  0
VERTEX
  8
0
 10
110.0
 20
120.0
  0
SEQEND
  8
0
  0
POLYLINE
  8
0
 62
250
 70
0
 66
1
 10
0.0
 20
0.0
 30
0.0
  0
VERTEX
  8
0
 10
110.0
 20
120.0
  0
VERTEX
  8
0
 10
90.0
 20
120.0
  0
VERTEX
  8
0
 10
110.0
 20
120.0
  0
VERTEX
  8
0
 10
110.0
 20
120.0
  0
VERTEX
  8
0
 10
110.0
 20
120.0
  0
SEQEND
  8
0
  0
ENDBLK
  0
ENDSEC
  0
SECTION
  2
ENTITIES
  0
INSERT
  2
CUT002007
  8
0
 10
0.0
 20
0.0
 30
0.0
  0
DIMENSION
  8
0
 62
0
 3
Standard
 70
1
 10
110.0
 20
178.432006836
 30
0.75
 13
0.0
 23
145.0
 33
1.5
 14
110.0
 24
145.0
 34
1.5
  0
DIMENSION
  8
0
 62
0
 3
Standard
 70
1
 10
90.0
 20
169.623001099
 30
0.75
 13
20.0
 23
120.0
 33
1.5
 14
90.0
 24
120.0
 34
1.5
  0
DIMENSION
  8
0
 62
0
 3
Standard
 70
1
 10
-17.3390007019
 20
120.0
 30
0.75
 13
0.0
 23
145.0
 33
1.5
 14
0.0
 24
120.0
 34
1.5
  0
DIMENSION
  8
0
 62
0
 3
Standard
 70
1
 10
-17.3390007019
 20
75.0
 30
0.75
 13
0.0
 23
120.0
 33
1.5
 14
0.0
 24
75.0
 34
1.5
  0
DIMENSION
  8
0
 62
0
 3
Standard
 70
1
 10
-17.3390007019
 20
60.0
 30
0.75
 13
0.0
 23
75.0
 33
1.5
 14
0.0
 24
60.0
 34
1.5
  0
DIMENSION
  8
0
 62
0
 3
Standard
 70
1
 10
-37.4168014526
 20
145.013526826
 30
0.726427886054
 13
16.6159992218
 23
5.55111988769e-16
 33
1.5
 14
16.6159992218
 24
144.990005493
 34
3.0
  0
DIMENSION
  8
0
 62
0
 3
Standard
 70
1
 10
99.0
 20
-27.0023002625
 30
0.75
 13
11.0
 23
5.55111988769e-16
 33
1.5
 14
99.0
 24
5.55111988769e-16
 34
1.5
  0
DIMENSION
  8
0
 62
0
 3
Standard
 70
1
 10
124.226753235
 20
121.510002136
 30
0.739463806152
 13
41.0099983215
 23
141.509994507
 33
1.5
 14
41.0099983215
 24
121.510002136
 34
1.5
  0
DIMENSION
  8
0
 62
0
 3
Standard
 70
1
 10
60.0
 20
157.283996582
 30
0.739463806152
 13
69.0
 23
141.490005493
 33
1.5
 14
60.0
 24
141.490005493
 34
1.5
  0
DIMENSION
  8
0
 62
0
 3
Standard
 70
1
 10
55.0
 20
157.279998779
 30
0.740000009537
 13
60.0
 23
141.470001221
 33
1.5
 14
55.0
 24
141.470001221
 34
1.5
  0
DIMENSION
  8
0
 62
0
 3
Standard
 70
1
 10
50.0
 20
157.279998779
 30
0.740000009537
 13
55.0
 23
141.470001221
 33
1.5
 14
50.0
 24
141.470001221
 34
1.5
  0
DIMENSION
  8
0
 62
0
 3
Standard
 70
1
 10
41.0
 20
157.279998779
 30
0.740000009537
 13
50.0
 23
141.470001221
 33
1.5
 14
41.0
 24
141.470001221
 34
1.5
  0
DIMENSION
  8
0
 62
0
 3
Standard
 70
1
 10
109.946548462
 20
113.0
 30
0.739463806152
 13
82.0299987793
 23
120.0
 33
1.5
 14
82.0299987793
 24
113.0
 34
1.5
  0
DIMENSION
  8
0
 62
0
 3
Standard
 70
1
 10
-0.0880699679255
 20
112.0
 30
0.739463806152
 13
25.9799995422
 23
120.0
 33
1.5
 14
25.9799995422
 24
112.0
 34
1.5
  0
DIMENSION
  8
0
 62
0
 3
Standard
 70
1
 10
110.0
 20
88.2908935547
 30
0.739463806152
 13
90.0
 23
75.0
 33
1.5
 14
110.0
 24
75.0
 34
1.5
  0
DIMENSION
  8
0
 62
0
 3
Standard
 70
1
 10
-9.42708015442
 20
63.0
 30
0.739463806152
 13
21.0200004578
 23
75.0
 33
1.5
 14
21.0200004578
 24
63.0
 34
1.5
  0
DIMENSION
  8
0
 62
0
 3
Standard
 70
1
 10
124.899971008
 20
63.0
 30
0.739463806152
 13
85.9499969482
 23
75.0
 33
1.5
 14
85.9499969482
 24
63.0
 34
1.5
  0
DIMENSION
  8
0
 62
0
 3
Standard
 70
1
 10
21.0
 20
59.6599998474
 30
1.60000002384
 13
0.0
 23
62.8400001526
 33
1.60000002384
 14
21.0
 24
62.8400001526
 34
1.60000002384
  0
DIMENSION
  8
0
 62
0
 3
Standard
 70
1
 10
86.0
 20
59.4700012207
 30
1.60000002384
 13
110.0
 23
62.8899993896
 33
1.60000002384
 14
86.0
 24
62.8899993896
 34
1.60000002384
  0
DIMENSION
  8
0
 62
0
 3
Standard
 70
1
 10
82.0
 20
107.519996643
 30
1.60000002384
 13
90.0
 23
112.919998169
 33
1.60000002384
 14
82.0
 24
112.919998169
 34
1.60000002384
  0
DIMENSION
  8
0
 62
0
 3
Standard
 70
1
 10
26.0
 20
107.400001526
 30
1.60000002384
 13
20.0
 23
111.849998474
 33
1.60000002384
 14
26.0
 24
111.849998474
 34
1.60000002384
  0
ENDSEC
  0
EOF
